<?xml version="1.0" encoding="utf-8"?>
<!-- Generator: Adobe Illustrator 25.0.0, SVG Export Plug-In . SVG Version: 6.00 Build 0)  -->
<svg version="1.1" id="Capa_1" xmlns="http://www.w3.org/2000/svg" xmlns:xlink="http://www.w3.org/1999/xlink" x="0px" y="0px"
	 viewBox="0 0 300 300" style="enable-background:new 0 0 300 300;" xml:space="preserve">
<style type="text/css">
	.st0{fill:#E6E6E6;}
	.st1{fill:#E8C949;}
	.st2{fill:#FFFFFF;}
	.st3{clip-path:url(#SVGID_2_);}
	.st4{fill:#EC1655;}
	.st5{fill:#0CBAC6;}
	.st6{fill-rule:evenodd;clip-rule:evenodd;fill:#E8C949;}
	.st7{fill:#FFFFFF;stroke:#FFFFFF;stroke-miterlimit:10;}
	.st8{fill:#756213;}
	.st9{fill:#C1DAEA;}
	.st10{fill:#9CC6D9;}
	.st11{fill:#F9F9F9;}
</style>
<g>
	<g>
		<g>
			<path class="st0" d="M236.3,246.4c-6.7,0-14.2-0.7-22.2-2.2c-29-5.4-62.6-19.9-94.8-40.8c-32.2-20.9-59.1-45.8-75.8-70.1
				c-16.9-24.6-21.2-45.7-12.3-59.4c8.9-13.7,30-18.3,59.3-12.9c29,5.4,62.6,19.9,94.8,40.8c32.2,20.9,59.1,45.9,75.8,70.1
				c16.9,24.6,21.2,45.7,12.3,59.4C266.9,241.3,254.1,246.4,236.3,246.4z M68.2,61.1c-16.9,0-29,4.8-35,14
				c-17.5,26.9,21.7,83.6,87.4,126.3c32,20.8,65.3,35.2,94,40.5c28.3,5.3,48.5,1,56.9-11.8c17.5-26.9-21.7-83.6-87.4-126.3
				c-32-20.8-65.3-35.2-94-40.5C82.1,61.8,74.8,61.1,68.2,61.1z"/>
		</g>
		<g>
			<path class="st0" d="M150.3,193.9c-35.5,0-68.9-4-94.2-11.4c-26.2-7.6-40.7-18-40.7-29.2c-0.1-11.2,14.2-21.7,40.2-29.6
				c25.7-7.8,59.9-12.2,96.3-12.4c36.4-0.2,70.7,3.9,96.5,11.4c26.2,7.6,40.7,18,40.7,29.2l0,0c0.1,11.2-14.2,21.7-40.2,29.6
				c-25.7,7.8-59.9,12.2-96.3,12.4C151.9,193.9,151.1,193.9,150.3,193.9z M154.3,113.1c-0.8,0-1.6,0-2.3,0
				c-36.1,0.2-70,4.5-95.5,12.3c-25.1,7.6-38.9,17.5-38.8,27.9c0.1,10.4,14,20.2,39.3,27.6c25.6,7.5,59.5,11.5,95.7,11.3
				c36.1-0.2,70-4.5,95.5-12.3c25.1-7.6,38.9-17.5,38.8-27.9c-0.1-10.4-14-20.2-39.3-27.6C222.6,117.1,189.5,113.1,154.3,113.1z"/>
		</g>
		<g>
			<path class="st0" d="M77.6,234c-20.5,0-34.9-5.9-41.1-17.2c-7.5-13.5-2.3-32.8,14.5-54.4c16.7-21.4,42.8-42.6,73.6-59.6
				c30.8-17.1,62.6-28,89.6-30.8c27.3-2.8,46.4,3,53.9,16.5c7.5,13.5,2.3,32.8-14.5,54.4c-16.7,21.4-42.8,42.6-73.6,59.6
				c-30.8,17.1-62.6,28-89.6,30.8C85.9,233.8,81.6,234,77.6,234z M226.9,73.3c-27.2,0-64.3,10.8-101.3,31.3
				c-62.8,34.8-102,84.7-87.3,111.2c6,10.9,20.3,16.2,39.3,16.2c27.2,0,64.3-10.8,101.3-31.3c62.8-34.8,102-84.7,87.3-111.2
				C260.2,78.6,245.9,73.3,226.9,73.3z"/>
		</g>
		<g>
			<path class="st0" d="M106.3,284.4c-1.8,0-3.6-0.3-5.2-1c-10.8-4.2-15.4-21.9-13.1-49.8c2.3-27.5,11.1-61.7,24.7-96.5
				c13.6-34.8,30.4-65.9,47.4-87.7c17.2-22.1,32.6-32,43.4-27.7c10.8,4.2,15.4,21.9,13.1,49.8c-2.3,27.5-11.1,61.7-24.7,96.5
				c-13.6,34.8-30.4,65.9-47.4,87.7C129.9,274.5,116.6,284.4,106.3,284.4z M198.3,23.1c-9.5,0-22.4,9.8-36.4,27.8
				c-16.8,21.6-33.5,52.5-47,87.1c-13.5,34.6-22.3,68.6-24.6,95.9c-2.2,26.4,2,43.7,11.6,47.5c9.6,3.8,24.5-6.1,40.7-27
				c16.8-21.6,33.5-52.5,47-87.1c13.5-34.6,22.3-68.6,24.6-95.9c2.2-26.4-2-43.7-11.6-47.5C201.3,23.4,199.9,23.1,198.3,23.1z"/>
		</g>
		<path class="st0" d="M146,52.6c-15.9-22.1-30.1-32.3-40.2-28.8c-10.1,3.6-14.6,20.4-12.6,47.5c1.9,26.7,9.7,60.2,22.1,94.4
			c12.4,34.2,27.8,65.1,43.4,86.9c13.1,18.2,25.1,28.4,34.5,29.4c2,0.2,3.9,0,5.7-0.6c10.1-3.6,14.6-20.4,12.6-47.5
			c-1.9-26.7-9.7-60.2-22.1-94.4C177,105.3,161.6,74.4,146,52.6z M187.6,140.1c12.3,34,20.1,67.3,22,93.7
			c1.8,25.6-2.4,42.2-11.5,45.4c-9.1,3.2-22.9-6.9-38-27.9c-15.5-21.6-30.8-52.2-43-86.2c-12.3-34-20.1-67.3-22-93.7
			c-1.8-25.6,2.4-42.2,11.5-45.4c1.5-0.5,3.1-0.7,4.9-0.5c8.8,0.9,20.5,10.9,33.1,28.4C160,75.5,175.3,106.1,187.6,140.1z"/>
	</g>
	<g>
		<g>
			<path class="st0" d="M268.1,88.4c-7.5-13.5-26.6-19.3-53.9-16.5c-27,2.8-58.8,13.7-89.6,30.8c-30.8,17.1-56.9,38.3-73.6,59.6
				c-16.8,21.6-22,41-14.5,54.4c6.2,11.3,20.6,17.2,41.1,17.2c4,0,8.3-0.2,12.8-0.7c0.6-0.1,1.1-0.1,1.7-0.2c0-0.4-0.1-0.8-0.1-1.2
				c0-0.3,0-0.6,0-0.9c-5,0.6-9.8,0.9-14.3,0.9c-19,0-33.2-5.3-39.3-16.2c-14.7-26.5,24.5-76.4,87.3-111.2
				c37-20.5,74-31.3,101.3-31.3c19,0,33.2,5.3,39.3,16.2c8.2,14.7-0.3,36.7-20.3,59.3c0.5,0.5,0.9,1.1,1.3,1.7
				c2.2-2.5,4.3-5,6.3-7.6C270.4,121.2,275.5,101.9,268.1,88.4z"/>
		</g>
		<g>
			<path class="st0" d="M261.1,172c-16.7-24.3-43.6-49.2-75.8-70.1C153.1,80.9,119.4,66.4,90.5,61c-29.3-5.4-50.3-0.9-59.3,12.9
				c-8.9,13.7-4.6,34.8,12.3,59.4c1.4,2.1,2.9,4.1,4.4,6.2c0.2-0.3,0.4-0.6,0.7-0.8c0.3-0.3,0.6-0.6,0.9-0.9
				c-18.8-24.9-25.8-48.1-16.4-62.6c6-9.3,18.2-14,35-14c6.6,0,13.9,0.7,21.9,2.2c28.7,5.3,62,19.7,94,40.5
				c65.7,42.7,104.9,99.4,87.4,126.3c-6.3,9.7-19.3,14.5-37.3,14c-0.2,0.8-0.5,1.5-0.8,2.3c1,0,2.1,0.1,3.1,0.1
				c17.7,0,30.6-5.1,37.1-15.1C282.3,217.6,277.9,196.5,261.1,172z"/>
		</g>
		<g>
			<path class="st0" d="M203.5,21.7c-10.3-4-24.9,4.8-41.3,25c0.2,0.1,0.3,0.1,0.5,0.2c0.5,0.3,1,0.6,1.5,0.9
				c13.1-16.1,25.1-24.8,34-24.8c1.5,0,3,0.3,4.3,0.8c9.6,3.8,13.8,21.1,11.6,47.5c-2.3,27.3-11.1,61.3-24.6,95.9
				c-13.5,34.6-30.2,65.5-47,87.1c-16.3,20.9-31.1,30.8-40.7,27c-8.8-3.4-13.1-18.2-12-41c-0.5-0.1-1.1-0.2-1.6-0.3
				c-0.3-0.1-0.5-0.1-0.7-0.2c-1.2,24.3,3.5,39.7,13.5,43.6c1.6,0.6,3.4,1,5.2,1c10.3,0,23.6-9.9,38.2-28.7
				c16.9-21.8,33.8-52.9,47.4-87.7c13.6-34.8,22.4-69,24.7-96.5C219,43.7,214.3,26,203.5,21.7z"/>
		</g>
		<g>
			<path class="st0" d="M261,127c-0.3,0.6-0.6,1.1-0.9,1.6c17.3,6.7,26.7,14.8,26.8,23.4c0.1,10.4-13.7,20.3-38.8,27.9
				c-25.4,7.7-59.3,12.1-95.5,12.3c-36.1,0.2-70.1-3.8-95.7-11.3c-25.2-7.4-39.2-17.2-39.3-27.6c-0.1-7,6.2-13.8,17.9-19.8
				c-0.2-0.3-0.3-0.7-0.5-1c-0.1-0.2-0.2-0.5-0.3-0.7c-12.8,6.4-19.6,13.8-19.5,21.6c0.1,11.2,14.6,21.5,40.7,29.2
				c25.3,7.4,58.6,11.4,94.2,11.4c0.8,0,1.6,0,2.3,0c36.4-0.2,70.6-4.6,96.3-12.4c26-7.9,40.3-18.4,40.2-29.6
				C289.1,142.7,279.2,134,261,127z"/>
		</g>
		<path class="st0" d="M146,52.6c-15.9-22.1-30.1-32.3-40.2-28.8C96.9,27,92.4,40.3,92.7,61.7c0.7,0,1.3,0.1,2,0.2
			c-0.2-20.2,4-33.1,11.9-35.9c1.5-0.5,3.1-0.7,4.9-0.5c8.8,0.9,20.5,10.9,33.1,28.4c15.5,21.6,30.8,52.2,43,86.2
			c12.3,34,20.1,67.3,22,93.7c1.8,25.6-2.4,42.2-11.5,45.4c-9.1,3.2-22.9-6.9-38-27.9c-0.4-0.5-0.7-1-1.1-1.5
			c-0.6,0.3-1.3,0.4-2,0.6c0.5,0.8,1.1,1.5,1.6,2.3c13.1,18.2,25.1,28.4,34.5,29.4c2,0.2,3.9,0,5.7-0.6
			c10.1-3.6,14.6-20.4,12.6-47.5c-1.9-26.7-9.7-60.2-22.1-94.4C177,105.3,161.6,74.4,146,52.6z"/>
	</g>
</g>
<g>
	<path class="st1" d="M142,34.4c0,7.3-5.9,13.2-13.2,13.2s-13.2-5.9-13.2-13.2c0-7.3,5.9-13.2,13.2-13.2S142,27.1,142,34.4z"/>
	<path id="XMLID_17_" class="st2" d="M137.3,29.4c-0.6,0.2-1.2,0.4-1.8,0.5c0.7-0.4,1.2-1,1.4-1.7c0,0,0-0.1-0.1-0.1
		c-0.6,0.3-1.3,0.6-2,0.7c-0.6-0.6-1.5-1.1-2.5-1.1c-1.9,0-3.4,1.5-3.4,3.3c0,0.3,0,0.5,0.1,0.8c-2.8-0.1-5.3-1.5-7-3.5c0,0,0,0,0,0
		c-0.3,0.5-0.4,1.1-0.4,1.7c0,1.1,0.6,2.1,1.4,2.7c0,0,0,0,0,0c-0.5,0-1-0.2-1.4-0.4c0,0,0,0,0,0c0,0.1,0.1,0.8,0.2,1.2
		c0.4,1,1.3,1.8,2.5,2.1c-0.3,0.1-0.6,0.1-0.9,0.1c-0.2,0-0.4,0-0.6-0.1c0,0,0,0,0,0c0.4,1.3,1.7,2.2,3.1,2.3c0,0,0,0,0,0
		c-1.2,0.9-2.6,1.4-4.2,1.4c-0.3,0-0.5,0-0.8,0c1.5,0.9,3.3,1.5,5.2,1.5c2.6,0,4.8-0.9,6.3-2.3c1.6-1.4,2.6-3.3,3.1-5.2
		c0.2-0.7,0.2-1.4,0.2-2c0-0.1,0-0.3,0-0.4C136.4,30.6,137,30.1,137.3,29.4C137.4,29.5,137.4,29.4,137.3,29.4z"/>
</g>
<g>
	<path class="st1" d="M93,135.2c0,8-6.5,14.5-14.5,14.5c-8,0-14.5-6.5-14.5-14.5c0-8,6.5-14.5,14.5-14.5
		C86.5,120.7,93,127.2,93,135.2z"/>
	<g>
		<g>
			<path class="st2" d="M87.2,134.7c-0.1-4.6-3.9-8.2-8.5-8.2c-4.6,0-8.3,3.5-8.5,8.1c0,0.1,0,0.2,0,0.4c0,1.5,0.4,3,1.2,4.3
				c0,0,0,0.1,0,0.1l-1.5,4.5c0,0.1,0,0.1,0.1,0.1l4.6-1.5c0,0,0.1,0,0.1,0c1.2,0.7,2.6,1,4,1c4.7,0,8.5-3.8,8.5-8.5
				C87.2,134.9,87.2,134.7,87.2,134.7z M72.9,138.7c-0.8-1.1-1.2-2.4-1.2-3.8c0-0.2,0-0.4,0-0.7c0.3-3.5,3.3-6.2,6.9-6.2
				c3.6,0,6.6,2.8,6.9,6.3c0,0.2,0,0.4,0,0.5c0,3.8-3.1,6.9-6.9,6.9c-1,0-2-0.2-2.9-0.6c-0.3-0.1-0.7-0.4-0.9-0.5c0,0-0.1,0-0.1,0
				l-2.3,0.7c-0.1,0-0.1,0-0.1-0.1l0.8-2.2c0,0,0-0.1,0-0.1C73,138.9,73,138.8,72.9,138.7z"/>
		</g>
		<path class="st2" d="M82.7,136.8c-0.1-0.1-0.4-0.3-0.4-0.3c-0.1-0.1-1.2-0.6-1.4-0.7c-0.2-0.1-0.4-0.1-0.5,0.1
			c-0.1,0.2-0.5,0.6-0.6,0.8c-0.1,0.1-0.2,0.1-0.4,0c0,0-1-0.4-1.6-1c-0.6-0.5-1-1.1-1.1-1.4c-0.1-0.2,0-0.2,0.1-0.3
			c0.1-0.1,0.4-0.4,0.4-0.5c0-0.1,0.1-0.2,0.1-0.2c0.1-0.2,0-0.3,0-0.4c0-0.1-0.6-1.4-0.6-1.5c-0.2-0.4-0.3-0.4-0.5-0.4
			c-0.1,0-0.8,0-1,0.3l0,0c-0.2,0.2-0.7,0.7-0.7,1.7c0,0.2,0,0.5,0.1,0.7c0.1,0.5,0.4,1,0.7,1.4c0,0,0.5,0.7,0.8,1
			c0.8,1,1.8,1.7,2.7,2c1.2,0.5,1.7,0.6,2,0.6c0.1,0,0.4-0.1,0.5-0.1c0.4,0,1.3-0.5,1.4-1C82.8,137.3,82.8,136.9,82.7,136.8z"/>
	</g>
</g>
<g>
	<path class="st1" d="M226.6,97.5c0,7.8-6.3,14.1-14.1,14.1s-14.1-6.3-14.1-14.1c0-7.8,6.3-14.1,14.1-14.1S226.6,89.7,226.6,97.5z"
		/>
	<path id="XMLID_18_" class="st2" d="M213.7,94.6v-1.3c0-0.6,0.4-0.8,0.7-0.8c0.3,0,1.9,0,1.9,0v-2.8l-2.6,0c-2.9,0-3.5,2.1-3.5,3.5
		v1.5h-1.6v3.3h1.7c0,3.8,0,8.3,0,8.3h3.3c0,0,0-4.6,0-8.3h2.5l0.3-3.3H213.7z"/>
</g>
<g>
	<path class="st1" d="M275.1,80.8c0,9-7.3,16.2-16.2,16.2c-9,0-16.2-7.3-16.2-16.2c0-9,7.3-16.2,16.2-16.2
		C267.8,64.5,275.1,71.8,275.1,80.8z"/>
	<g>
		<path class="st2" d="M267.8,82.5c0.1-0.6,0.2-1.3,0.2-1.9c0-0.2,0-0.5,0-0.7c-0.3-4.6-4.3-8.2-9-8.2c-0.5,0-1,0-1.5,0.1
			c-0.8-0.5-1.8-0.8-2.8-0.8c-2.9,0-5.2,2.3-5.2,5.2c0,1,0.3,1.8,0.7,2.6c-0.1,0.3-0.1,0.7-0.1,1c0,0.3,0,0.5,0,0.8
			c0,4.9,4,8.9,9,8.9c0.6,0,1.1-0.1,1.7-0.1c0.7,0.4,1.6,0.6,2.5,0.6c2.9,0,5.2-2.3,5.2-5.2C268.3,84,268.1,83.2,267.8,82.5z"/>
		<path id="path78_1_" class="st1" d="M256.4,74.9L256.4,74.9c-0.7,0.3-1.3,0.7-1.7,1.2c-0.4,0.5-0.6,1.1-0.6,1.8
			c0,0.7,0.2,1.3,0.6,1.8c0.4,0.5,0.9,0.8,1.5,1.1c0.6,0.3,1.4,0.5,2.3,0.7c0.7,0.1,1.2,0.3,1.6,0.4c0.4,0.1,0.7,0.3,0.9,0.5
			c0.2,0.2,0.3,0.5,0.3,0.8c0,0.4-0.2,0.8-0.7,1.1c-0.5,0.3-1,0.5-1.8,0.5c-0.5,0-1-0.1-1.3-0.2c-0.3-0.2-0.6-0.3-0.7-0.6
			c-0.2-0.2-0.4-0.5-0.5-0.9c-0.1-0.3-0.3-0.6-0.5-0.8c-0.2-0.2-0.5-0.3-0.8-0.3c-0.4,0-0.7,0.1-0.9,0.3c-0.2,0.2-0.4,0.5-0.4,0.8
			c0,0.5,0.2,1.1,0.6,1.6c0.4,0.5,0.9,1,1.5,1.3c0.8,0.4,1.9,0.7,3.2,0.7c1.1,0,2-0.2,2.8-0.5c0.8-0.3,1.4-0.8,1.8-1.4
			c0.4-0.6,0.6-1.2,0.6-2c0-0.6-0.1-1.1-0.4-1.6c-0.2-0.4-0.6-0.8-1-1.1c-0.4-0.3-0.9-0.5-1.5-0.7c-0.6-0.2-1.2-0.4-1.9-0.5
			c-0.6-0.1-1-0.2-1.2-0.3c-0.2-0.1-0.5-0.2-0.7-0.3c-0.2-0.1-0.4-0.2-0.5-0.4c-0.1-0.1-0.2-0.3-0.2-0.5c0-0.3,0.2-0.6,0.5-0.8
			c0.4-0.3,0.9-0.4,1.5-0.4c0.7,0,1.2,0.1,1.5,0.3c0.3,0.2,0.6,0.6,0.8,1c0.2,0.3,0.4,0.6,0.5,0.7c0.2,0.2,0.4,0.2,0.8,0.2
			c0.4,0,0.7-0.1,0.9-0.4c0.2-0.2,0.4-0.5,0.4-0.9c0-0.3-0.1-0.7-0.3-1c-0.2-0.3-0.5-0.7-0.9-1c-0.4-0.3-0.9-0.5-1.5-0.7
			c-0.6-0.2-1.3-0.3-2.1-0.3C258,74.5,257.2,74.6,256.4,74.9"/>
	</g>
</g>
<g>
	<path class="st1" d="M164,245.1c0,7.8-6.3,14.1-14.1,14.1c-7.8,0-14.1-6.3-14.1-14.1s6.3-14.1,14.1-14.1
		C157.7,231,164,237.4,164,245.1z"/>
	<g>
		<path class="st2" d="M158.5,245.5c0,1.9-1.6,3.5-3.5,3.5c-1.9,0-3.5-1.6-3.5-3.5s1.6-3.5,3.5-3.5C157,242,158.5,243.6,158.5,245.5
			z"/>
		<path class="st2" d="M149,245.5c0,1.9-1.6,3.5-3.5,3.5c-1.9,0-3.5-1.6-3.5-3.5s1.6-3.5,3.5-3.5C147.5,242,149,243.6,149,245.5z"/>
	</g>
</g>
<g>
	<path class="st1" d="M59.9,224.1c0,6.7-5.4,12.1-12.1,12.1c-6.7,0-12.1-5.4-12.1-12.1c0-6.7,5.4-12.1,12.1-12.1
		C54.5,212,59.9,217.4,59.9,224.1z"/>
	<path id="XMLID_24_" class="st2" d="M48.3,217.4c-2.4,0-4.8,1.1-5.9,3.3c-0.6,1.2-0.7,2.6-0.2,3.8c0.2,0.5,0.5,1,1,1.3
		c0.2,0.1,0.5,0.4,0.8,0.3c0.2-0.1,0.3-0.4,0.3-0.6c0.1-0.2,0.2-0.5,0.1-0.7c-0.2-0.3-0.4-0.5-0.5-0.8c-0.1-0.4-0.2-0.9-0.2-1.3
		c0.1-1.3,0.8-2.6,2-3.2c1.8-1.1,4.8-0.9,5.8,1.2c0.5,1,0.4,2.3,0.1,3.4c-0.3,1-0.8,2.1-1.8,2.5c-0.9,0.4-2.2,0-2.2-1.1
		c0-0.3,0.1-0.7,0.2-1c0.1-0.4,0.2-0.7,0.3-1.1c0.2-0.6,0.4-1.2,0.2-1.8c-0.3-1.1-1.6-1.1-2.3-0.3c-0.4,0.4-0.5,0.9-0.6,1.5
		c0,0.4,0.1,0.8,0.2,1.2c0,0.2,0.1,0.3,0.1,0.5c0,0.2-0.1,0.4-0.2,0.7c-0.2,0.8-0.4,1.6-0.6,2.4c-0.2,0.7-0.4,1.4-0.5,2.1
		c-0.1,0.6-0.1,1.2,0,1.9c0,0.2,0,0.4,0.1,0.6c0,0.1,0,0.3,0.1,0.3c0.2,0.2,0.5-0.5,0.6-0.6c0.3-0.5,0.7-1,0.9-1.5
		c0.4-0.8,0.5-1.6,0.7-2.4c0.1-0.2,0.1-0.4,0.2-0.7c0.4,0.7,1.2,1,1.9,1.1c0.7,0.1,1.4-0.1,2-0.3c1.2-0.5,2.1-1.6,2.6-2.9
		c0.5-1.3,0.7-3,0.2-4.3c-0.5-1.2-1.4-2.2-2.6-2.7c-1-0.5-2.2-0.6-3.3-0.6c0.6,0,1.1,0,1.7,0C49,217.4,48.6,217.4,48.3,217.4
		C46,217.4,51.7,217.4,48.3,217.4z"/>
</g>
<g>
	<path class="st1" d="M287.5,230.4c0,8.6-7,15.6-15.6,15.6c-8.6,0-15.6-7-15.6-15.6c0-8.6,7-15.6,15.6-15.6
		C280.5,214.9,287.5,221.8,287.5,230.4z"/>
	<g>
		<rect x="265.3" y="226.8" class="st2" width="3.2" height="9.2"/>
		<path class="st2" d="M266.9,222.2c-1,0-1.8,0.9-1.6,2c0.1,0.6,0.6,1.1,1.2,1.2c1,0.2,1.9-0.6,1.9-1.6
			C268.5,222.9,267.8,222.2,266.9,222.2z"/>
		<path class="st2" d="M279.1,229.6c-0.2-1.7-1.1-2.8-3.4-2.8c-1.7,0-2.3,0.3-2.7,1l0,0v-1h-2.6v9.2h2.7v-4.8c0-1.2,0.2-2.1,1.7-2.1
			c1.5,0,1.6,1.1,1.6,2.2v4.7h2.7C279.1,235.9,279.1,230,279.1,229.6z"/>
	</g>
</g>
<g>
	<g>
		<defs>
			<circle id="SVGID_1_" cx="33.1" cy="77.9" r="14.9"/>
		</defs>
		<use xlink:href="#SVGID_1_"  style="overflow:visible;fill:#E8C949;"/>
		<clipPath id="SVGID_2_">
			<use xlink:href="#SVGID_1_"  style="overflow:visible;"/>
		</clipPath>
		<g class="st3">
			<defs>
				<rect id="SVGID_3_" x="17.1" y="61.9" width="32" height="32"/>
			</defs>
			<use xlink:href="#SVGID_3_"  style="overflow:visible;fill:#E8C949;"/>
			<clipPath id="SVGID_4_">
				<use xlink:href="#SVGID_3_"  style="overflow:visible;"/>
			</clipPath>
			<g transform="matrix(1 0 0 1 0 0)" style="display:none;clip-path:url(#SVGID_4_);">
				
					<image style="display:inline;overflow:visible;" width="304" height="303" xlink:href="F008C215.jpg"  transform="matrix(0.1059 0 0 0.1059 17.0148 61.7784)">
				</image>
			</g>
		</g>
	</g>
	<g>
		<g>
			<path class="st2" d="M33.1,70.2c2.5,0,2.8,0,3.8,0.1c0.9,0,1.4,0.2,1.7,0.3c0.4,0.2,0.7,0.4,1.1,0.7c0.3,0.3,0.5,0.6,0.7,1.1
				c0.1,0.3,0.3,0.8,0.3,1.7c0,1,0.1,1.3,0.1,3.8c0,2.5,0,2.8-0.1,3.8c0,0.9-0.2,1.4-0.3,1.7c-0.2,0.4-0.4,0.7-0.7,1.1
				c-0.3,0.3-0.6,0.5-1.1,0.7c-0.3,0.1-0.8,0.3-1.7,0.3c-1,0-1.3,0.1-3.8,0.1c-2.5,0-2.8,0-3.8-0.1c-0.9,0-1.4-0.2-1.7-0.3
				c-0.4-0.2-0.7-0.4-1.1-0.7c-0.3-0.3-0.5-0.6-0.7-1.1c-0.1-0.3-0.3-0.8-0.3-1.7c0-1-0.1-1.3-0.1-3.8c0-2.5,0-2.8,0.1-3.8
				c0-0.9,0.2-1.4,0.3-1.7c0.2-0.4,0.4-0.7,0.7-1.1c0.3-0.3,0.6-0.5,1.1-0.7c0.3-0.1,0.8-0.3,1.7-0.3C30.3,70.2,30.6,70.2,33.1,70.2
				 M33.1,68.5c-2.5,0-2.9,0-3.9,0.1c-1,0-1.7,0.2-2.3,0.4c-0.6,0.2-1.1,0.6-1.7,1.1c-0.5,0.5-0.8,1-1.1,1.7
				C24,72.3,23.8,73,23.8,74c0,1-0.1,1.3-0.1,3.9c0,2.5,0,2.9,0.1,3.9c0,1,0.2,1.7,0.4,2.3c0.2,0.6,0.6,1.1,1.1,1.7
				c0.5,0.5,1,0.8,1.7,1.1c0.6,0.2,1.3,0.4,2.3,0.4c1,0,1.3,0.1,3.9,0.1c2.5,0,2.9,0,3.9-0.1c1,0,1.7-0.2,2.3-0.4
				c0.6-0.2,1.1-0.6,1.7-1.1c0.5-0.5,0.8-1,1.1-1.7c0.2-0.6,0.4-1.3,0.4-2.3c0-1,0.1-1.3,0.1-3.9c0-2.5,0-2.9-0.1-3.9
				c0-1-0.2-1.7-0.4-2.3c-0.2-0.6-0.6-1.1-1.1-1.7c-0.5-0.5-1-0.8-1.7-1.1c-0.6-0.2-1.3-0.4-2.3-0.4C36,68.5,35.7,68.5,33.1,68.5
				L33.1,68.5z"/>
			<path class="st2" d="M33.1,73c-2.7,0-4.8,2.2-4.8,4.8c0,2.7,2.2,4.8,4.8,4.8c2.7,0,4.8-2.2,4.8-4.8C37.9,75.2,35.8,73,33.1,73z
				 M33.1,81c-1.7,0-3.1-1.4-3.1-3.1c0-1.7,1.4-3.1,3.1-3.1c1.7,0,3.1,1.4,3.1,3.1C36.2,79.6,34.8,81,33.1,81z"/>
			<circle class="st2" cx="38.1" cy="72.9" r="1.1"/>
		</g>
	</g>
</g>
<g>
	<circle class="st1" cx="207.1" cy="212.7" r="13.3"/>
	<g>
		<g>
			<path class="st2" d="M203.6,218C203.6,218,203.6,218.1,203.6,218c0.2,0.1,0.3,0.3,0.4,0.4c0.4,0.4,0.9,0.5,1.5,0.6
				c1.3,0.1,2.5-0.9,2.7-2.2c0-0.1,0-0.1,0-0.2c0-4,0-8,0-11.9c0-0.3,0-0.3,0.3-0.3c0.6,0,1.2,0,1.8,0c0.1,0,0.1,0,0.2,0
				c0,0,0,0,0,0c0,0,0,0.1,0,0.1c0.2,1.1,0.8,1.9,1.7,2.6c0.1,0,0.1,0.1,0.2,0.1c0,0,0.1,0.1,0.1,0.1c0.1,0.1,0.2,0.2,0.4,0.3
				c0.5,0.4,1,0.7,1.7,0.8c0.1,0,0.1,0,0.2,0.1c0,0,0,0,0,0c0,0,0,0.1,0,0.1c0,0.7,0,1.4,0,2.1c0,0.2,0,0.2-0.2,0.2
				c-0.5,0-1-0.1-1.5-0.2c-0.9-0.2-1.7-0.5-2.4-1c0,0-0.1-0.1-0.1-0.1c-0.1,0,0,0.1,0,0.1c0,2,0,4,0,5.9c0,1.4-0.4,2.6-1.4,3.7
				c-1,1.1-2.2,1.8-3.6,1.9c-1.1,0.1-2.2-0.1-3.2-0.6c-0.2-0.1-0.3-0.2-0.5-0.3c0,0-0.1-0.1-0.1-0.1c-0.4-0.3-0.6-0.7-0.8-1
				c-0.4-0.6-0.6-1.2-0.7-1.9c-0.1-0.4-0.1-0.8-0.1-1.2c0.1-1.3,0.5-2.4,1.3-3.4c0.7-0.8,1.5-1.4,2.5-1.7c0.4-0.1,0.9-0.2,1.3-0.3
				c0.1,0,0.2,0,0.2,0c0,0,0.1,0,0.1,0c0,0,0,0,0,0c0,0,0,0.1,0,0.1c0,0.7,0,1.4,0,2.1c0,0,0,0.1,0,0.1c0,0.1,0,0.1-0.1,0.1
				c-0.2-0.1-0.4-0.1-0.6-0.1c-0.3,0-0.6,0-0.9,0.1c-1,0.4-1.6,1.1-1.7,2.1c-0.1,1,0.3,1.8,1.1,2.4C203.4,217.9,203.5,218,203.6,218
				z"/>
			<path class="st4" d="M201.7,220.5C201.8,220.5,201.8,220.5,201.7,220.5c0.7,0.4,1.4,0.7,2.1,0.8c0.4,0.1,0.7,0.1,1.1,0.1
				c1.3-0.1,2.4-0.5,3.3-1.3c0.9-0.8,1.6-1.7,1.9-2.9c0.1-0.4,0.2-0.7,0.2-1.1c0-0.2,0-0.4,0-0.7c0-1.9,0-3.8,0-5.6c0,0,0-0.1,0-0.1
				c0,0,0.1,0,0.1,0c0.7,0.5,1.4,0.8,2.2,1c0.4,0.1,0.9,0.2,1.3,0.2c0.2,0,0.4,0,0.6,0c0.1,0,0.1,0,0.1-0.1c0-0.1,0-0.2,0-0.3
				c0-0.6,0-1.3,0-1.9c0,0,0-0.1,0-0.1c0.2,0,0.3,0.1,0.5,0.1c0.1,0,0.2,0,0.3,0c0.1,0,0.1,0,0.1,0.1c0,0,0,0,0,0.1
				c0,0.9,0,1.8,0,2.8c0,0,0,0,0,0.1c0,0.1,0,0.1-0.1,0.1c-0.3,0-0.6,0-0.9-0.1c-0.6-0.1-1.2-0.2-1.7-0.4c-0.5-0.2-1-0.5-1.5-0.8
				c0,0-0.1,0-0.1-0.1c0,0.1,0,0.1,0,0.1c0,2,0,4,0,6c0,1.1-0.3,2.1-0.9,3c-0.7,1.1-1.7,1.9-2.9,2.3c-0.7,0.3-1.5,0.4-2.3,0.3
				C203.9,222,202.8,221.5,201.7,220.5C201.8,220.6,201.7,220.5,201.7,220.5z"/>
			<path class="st5" d="M210.4,204.4c0,0-0.1,0-0.1,0c-0.6,0-1.3,0-1.9,0c-0.2,0-0.2,0-0.2,0.1c0,4,0,7.9,0,11.9
				c0,0.3,0,0.5-0.1,0.8c-0.3,0.9-0.9,1.5-1.9,1.8c-1,0.2-1.9-0.1-2.6-0.9c0,0,0,0,0,0c0.2,0.1,0.4,0.2,0.6,0.2
				c0.7,0.1,1.3,0,1.9-0.3c0.7-0.4,1.1-1,1.2-1.8c0-0.1,0-0.3,0-0.4c0-4,0-7.9,0-11.9c0-0.2,0-0.2,0.2-0.2c0.9,0,1.8,0,2.7,0
				c0,0,0,0,0.1,0c0.1,0,0.1,0,0.1,0.1C210.4,204,210.4,204.2,210.4,204.4z"/>
			<path class="st5" d="M205.5,210.9c-0.6,0-1.1,0.1-1.6,0.3c-0.8,0.3-1.4,0.7-2,1.2c-0.8,0.7-1.3,1.6-1.6,2.6
				c-0.1,0.4-0.2,0.7-0.2,1.1c0,0.2,0,0.5,0,0.7c0,0.6,0.2,1.2,0.4,1.8c0.3,0.7,0.6,1.2,1.1,1.7c0,0,0,0,0,0c-0.1,0-0.2-0.1-0.3-0.2
				c-0.9-0.7-1.5-1.6-1.9-2.7c-0.1-0.4-0.2-0.8-0.2-1.2c0-0.3,0-0.6,0-0.9c0-0.7,0.2-1.3,0.5-1.9c0.3-0.6,0.7-1.2,1.2-1.7
				c0.6-0.6,1.3-1,2-1.3c0.5-0.2,1-0.3,1.5-0.3c0.4,0,0.7,0,1.1,0c0,0,0.1,0,0.1,0.1C205.5,210.5,205.5,210.7,205.5,210.9z"/>
			<path class="st4" d="M203.6,218c-0.2-0.1-0.4-0.2-0.6-0.4c-0.4-0.4-0.7-0.9-0.8-1.6c-0.1-1.3,0.7-2.4,1.8-2.7
				c0.5-0.1,1-0.2,1.4,0c0,0,0.1,0,0.1,0c0,0,0-0.1,0-0.1c0-0.7,0-1.4,0-2.2c0,0,0-0.1,0-0.1c0.3,0,0.6,0,0.8,0c0,0,0.1,0,0.1,0.1
				c0,0,0,0,0,0.1c0,1,0,1.9,0,2.9c0,0,0,0.1,0,0.1c-0.1,0-0.2-0.1-0.4-0.1c-0.7-0.1-1.4,0.1-2,0.5c-0.5,0.4-0.8,0.9-0.9,1.6
				C203,216.8,203.1,217.4,203.6,218C203.5,218,203.5,218,203.6,218z"/>
			<path class="st4" d="M212.3,207.2c-0.3-0.2-0.5-0.4-0.7-0.6c-0.6-0.6-1-1.3-1.1-2.2c0,0,0,0,0,0c0.3,0,0.5,0,0.8,0
				c0,0,0.1,0,0.1,0.1c0,0,0,0,0,0.1c0,0.7,0.2,1.4,0.6,2C211.9,206.7,212.1,207,212.3,207.2C212.3,207.2,212.3,207.2,212.3,207.2z"
				/>
			<path class="st5" d="M214.6,208.5c-0.7-0.2-1.4-0.5-1.9-1c-0.1-0.1-0.2-0.1-0.2-0.2c0,0,0,0,0.1,0c0.4,0.3,0.9,0.4,1.4,0.5
				c0.2,0,0.4,0.1,0.6,0.1c0.1,0,0.1,0,0.1,0.1C214.6,208.2,214.6,208.4,214.6,208.5z"/>
		</g>
	</g>
</g>
<g>
	<circle class="st1" cx="119.1" cy="172.7" r="15.3"/>
	<path class="st2" d="M128.9,167.8c-0.2-0.9-0.9-1.6-1.8-1.8c-1.6-0.4-8-0.4-8-0.4s-6.4,0-8,0.4c-0.9,0.2-1.6,0.9-1.8,1.8
		c-0.4,1.6-0.4,4.9-0.4,4.9s0,3.3,0.4,4.9c0.2,0.9,0.9,1.6,1.8,1.8c1.6,0.4,8,0.4,8,0.4s6.4,0,8-0.4c0.9-0.2,1.6-0.9,1.8-1.8
		c0.4-1.6,0.4-4.9,0.4-4.9S129.3,169.4,128.9,167.8z M117.1,175.8v-6.1l5.3,3.1L117.1,175.8z"/>
</g>
<g>
	<circle class="st6" cx="254.1" cy="163.7" r="11.3"/>
	<g>
		<g>
			<path d="M249.3,161c0,0,0-0.1,0-0.1c0-0.2,0-0.4,0-0.6c0-0.4,0.1-0.9,0.2-1.3c0.1-0.6,0.4-1.1,0.7-1.5c0.6-0.8,1.5-1.3,2.5-1.6
				c0.5-0.1,1.1-0.2,1.6-0.2c0.6,0,1.1,0.1,1.7,0.3c0.6,0.2,1.1,0.5,1.5,1c0.3,0.2,0.5,0.5,0.7,0.8c0.3,0.5,0.5,1,0.6,1.5
				c0.1,0.4,0.1,0.9,0.1,1.3c0,0.1,0,0.2,0,0.4c0,0,0,0,0.1,0c0.2,0,0.3-0.1,0.5,0c0.2,0,0.4,0.1,0.6,0.2c0.4,0.2,0.6,0.5,0.7,0.9
				c0.1,0.5,0,0.9-0.3,1.3c-0.1,0.2-0.3,0.3-0.5,0.5c-0.2,0.1-0.3,0.2-0.5,0.3c-0.1,0-0.1,0.1-0.2,0.1c0,0,0,0-0.1,0
				c-0.1,0.1-0.1,0.1-0.1,0.3c0,0,0,0.1,0.1,0.1c0.2,0.4,0.5,0.8,0.8,1.1c0.4,0.4,0.8,0.6,1.2,0.9c0.1,0.1,0.2,0.1,0.4,0.2
				c0.1,0.1,0.2,0.1,0.3,0.2c0.2,0.2,0.3,0.4,0.3,0.6c0,0.2-0.1,0.4-0.2,0.6c-0.1,0.2-0.3,0.4-0.5,0.5c-0.2,0.1-0.3,0.2-0.5,0.3
				c-0.2,0.1-0.4,0.1-0.5,0.2c-0.1,0-0.1,0-0.2,0.1c-0.1,0-0.1,0.1-0.2,0.2c0,0,0,0.1-0.1,0.1c-0.2,0.4-0.5,0.7-0.9,0.8
				c-0.2,0-0.3,0.1-0.5,0.1c-0.2,0-0.4,0-0.5,0c-0.3,0-0.6,0.1-0.8,0.2c-0.1,0-0.2,0.1-0.3,0.2c-0.1,0.1-0.3,0.2-0.4,0.3
				c-0.2,0.2-0.5,0.3-0.8,0.4c-0.4,0.2-0.8,0.3-1.2,0.3c-0.4,0-0.7,0-1.1,0c-0.5-0.1-1.1-0.2-1.5-0.5c-0.2-0.1-0.4-0.2-0.6-0.3
				c-0.1,0-0.2-0.1-0.2-0.1c-0.2-0.2-0.5-0.2-0.8-0.3c-0.3-0.1-0.6-0.1-0.8-0.1c-0.2,0-0.4,0-0.6,0c-0.1,0-0.3-0.1-0.4-0.1
				c-0.3-0.1-0.5-0.3-0.6-0.6c0-0.1,0-0.1-0.1-0.2c0-0.1-0.1-0.2-0.2-0.2c-0.1,0-0.1,0-0.2-0.1c-0.3-0.1-0.6-0.2-0.9-0.4
				c-0.2-0.1-0.4-0.2-0.5-0.4c-0.1-0.1-0.2-0.3-0.2-0.4c-0.1-0.3,0-0.6,0.2-0.9c0.1-0.1,0.2-0.2,0.3-0.2c0.1-0.1,0.2-0.1,0.3-0.2
				c0.4-0.2,0.8-0.4,1.1-0.7c0.4-0.3,0.7-0.7,1-1.1c0-0.1,0.1-0.2,0.1-0.2c0,0,0-0.1,0-0.2c0-0.1,0-0.1,0-0.1c0,0-0.1-0.1-0.1-0.1
				c-0.2-0.1-0.4-0.3-0.6-0.4c-0.1-0.1-0.3-0.2-0.4-0.3c-0.2-0.2-0.3-0.4-0.4-0.6c-0.2-0.5-0.1-1.1,0.3-1.5c0.2-0.2,0.5-0.3,0.8-0.4
				C248.8,161,249,161,249.3,161C249.3,161,249.3,161,249.3,161z"/>
			<path class="st7" d="M258,161c0,0.3,0,0.6,0,0.9c0,0.1,0,0.1,0,0.2c0,0.1,0.1,0.2,0.2,0.2c0,0,0.1,0,0.1,0c0.1,0,0.2-0.1,0.3-0.1
				c0.2-0.1,0.4-0.1,0.6-0.2c0.1,0,0.3,0,0.4,0c0.3,0.1,0.5,0.4,0.3,0.7c0,0.1-0.1,0.1-0.1,0.2c-0.1,0.1-0.2,0.2-0.3,0.2
				c-0.1,0.1-0.2,0.2-0.3,0.2c-0.2,0.1-0.4,0.3-0.6,0.4c-0.1,0.1-0.2,0.1-0.2,0.2c0,0-0.1,0.1-0.1,0.1c-0.1,0.1-0.1,0.2-0.1,0.3
				c0,0.1,0,0.2,0.1,0.3c0.1,0.3,0.2,0.6,0.4,0.9c0.3,0.5,0.7,1,1.2,1.3c0.4,0.3,0.8,0.6,1.3,0.8c0,0,0.1,0,0.1,0.1
				c0,0,0.1,0,0.1,0.1c0,0,0,0.1,0,0.1c0,0-0.1,0.1-0.1,0.1c-0.1,0-0.1,0.1-0.2,0.1c-0.3,0.1-0.5,0.2-0.8,0.3
				c-0.1,0-0.2,0.1-0.4,0.1c-0.1,0-0.2,0.1-0.2,0.1c-0.1,0.1-0.2,0.2-0.2,0.3c0,0.1,0,0.2,0,0.2c0,0.2-0.1,0.3-0.3,0.3
				c-0.1,0-0.1,0-0.2,0c-0.2,0-0.4,0-0.5,0c-0.4,0-0.8,0.1-1.2,0.2c-0.2,0.1-0.3,0.1-0.5,0.2c-0.2,0.1-0.3,0.2-0.5,0.3
				c-0.2,0.1-0.5,0.3-0.8,0.4c-0.3,0.1-0.6,0.2-0.9,0.2c-0.3,0-0.5,0-0.8,0c-0.4,0-0.8-0.2-1.1-0.3c-0.2-0.1-0.3-0.2-0.5-0.3
				c-0.1-0.1-0.2-0.1-0.4-0.2c-0.3-0.2-0.6-0.3-0.9-0.3c-0.3-0.1-0.6-0.1-0.9-0.1c-0.2,0-0.3,0-0.5,0c-0.1,0-0.2,0-0.3,0
				c-0.1,0-0.2-0.1-0.2-0.2c0-0.1,0-0.1,0-0.2c0,0,0,0,0,0c0-0.2-0.1-0.3-0.3-0.4c-0.1,0-0.2-0.1-0.3-0.1c-0.2-0.1-0.4-0.1-0.6-0.2
				c-0.2-0.1-0.3-0.1-0.5-0.2c0,0-0.1-0.1-0.1-0.1c0,0-0.1,0-0.1-0.1c-0.1-0.1-0.1-0.2,0-0.3c0.1,0,0.1-0.1,0.2-0.1
				c0.4-0.2,0.8-0.4,1.1-0.7c0.5-0.4,0.9-0.9,1.3-1.4c0.2-0.3,0.3-0.6,0.4-0.9c0-0.1,0.1-0.2,0.1-0.3c0-0.1,0-0.2-0.1-0.3
				c0,0-0.1-0.1-0.1-0.1c-0.1-0.1-0.3-0.2-0.5-0.3c-0.2-0.1-0.4-0.3-0.6-0.4c-0.1-0.1-0.2-0.1-0.3-0.2c-0.1-0.1-0.1-0.1-0.2-0.2
				c-0.1-0.2-0.1-0.3,0-0.5c0-0.1,0.1-0.2,0.2-0.2c0.1,0,0.3-0.1,0.4,0c0.2,0,0.3,0.1,0.4,0.1c0.1,0.1,0.3,0.1,0.4,0.2
				c0.1,0,0.1,0.1,0.2,0.1c0,0,0,0,0.1,0c0.1,0,0.2,0,0.2-0.1c0-0.1,0-0.2,0-0.3c0-0.5,0-1,0-1.5c0-0.3,0-0.7,0.1-1
				c0.1-0.4,0.3-0.9,0.6-1.2c0.5-0.7,1.2-1.1,2-1.3c0.4-0.1,0.9-0.2,1.4-0.2c0.5,0,1,0.1,1.4,0.3c0.4,0.2,0.8,0.4,1.2,0.7
				c0.4,0.4,0.8,0.9,0.9,1.4c0.1,0.3,0.1,0.5,0.2,0.8C258,160.2,258,160.6,258,161z"/>
		</g>
	</g>
</g>
<g>
	<circle class="st6" cx="158.1" cy="89.7" r="13.9"/>
	<g>
		<g>
			<polygon class="st2" points="165,90 162.2,92.8 159.5,92.8 157.1,95.2 157.1,92.8 154,92.8 154,82.5 165,82.5 			"/>
			<g>
				<g id="Layer_1-2_2_">
					<path class="st8" d="M153.3,81.1l-3.4,3.4v12.3h4.1v3.4l3.4-3.4h2.7l6.2-6.2v-9.6H153.3z M165,90l-2.7,2.7h-2.7l-2.4,2.4v-2.4
						H154V82.5h11V90z"/>
					<rect x="161.5" y="84.9" class="st8" width="1.4" height="4.1"/>
					<rect x="157.8" y="84.9" class="st8" width="1.4" height="4.1"/>
				</g>
			</g>
		</g>
	</g>
</g>
<g>
	<g>
		<circle class="st1" cx="20.1" cy="160.7" r="12.9"/>
		<path class="st9" d="M15.9,161.6l1.5,4.2c0,0,0.2,0.4,0.4,0.4c0.2,0,3.2-3.2,3.2-3.2l3.4-6.5l-8.5,4L15.9,161.6z"/>
		<path class="st10" d="M18,162.7l-0.3,3.1c0,0-0.1,1,0.8,0c1-1,1.9-1.7,1.9-1.7L18,162.7z"/>
		<g>
			<path class="st2" d="M16,161.8l-3.1-1c0,0-0.4-0.2-0.3-0.5c0-0.1,0.1-0.1,0.2-0.2c0.7-0.5,12.9-4.9,12.9-4.9s0.3-0.1,0.5,0
				c0.1,0,0.2,0.1,0.2,0.2c0,0.1,0,0.2,0,0.3c0,0.1,0,0.2,0,0.3c-0.1,1.2-2.3,10.2-2.3,10.2s-0.1,0.5-0.6,0.5c-0.2,0-0.4,0-0.6-0.2
				c-0.9-0.8-4.2-3-4.9-3.5c0,0-0.1-0.1-0.1-0.1c0-0.1,0-0.1,0-0.1s5.6-5,5.8-5.5c0,0,0-0.1-0.1,0c-0.4,0.1-6.9,4.2-7.6,4.7
				C16.1,161.8,16,161.8,16,161.8z"/>
		</g>
	</g>
</g>
<g>
	<g>
		<g>
			<g>
				<path class="st1" d="M90.1,251.8c-7.1,0-12.9,5.8-12.9,12.9c0,7.1,5.8,12.9,12.9,12.9c7.1,0,12.9-5.8,12.9-12.9
					C103,257.6,97.2,251.8,90.1,251.8z M96,270.4c-0.2,0.4-0.7,0.5-1.1,0.3c-3-1.9-6.8-2.3-11.3-1.2c-0.4,0.1-0.9-0.2-1-0.6
					c-0.1-0.4,0.2-0.9,0.6-1c4.9-1.1,9.1-0.6,12.5,1.4C96.1,269.5,96.3,270,96,270.4z M97.6,266.9c-0.3,0.5-0.9,0.6-1.4,0.3
					c-3.5-2.1-8.7-2.7-12.8-1.5c-0.5,0.2-1.1-0.1-1.3-0.7c-0.2-0.5,0.1-1.1,0.7-1.3c4.7-1.4,10.5-0.7,14.5,1.7
					C97.7,265.8,97.9,266.4,97.6,266.9z M97.7,263.2c-4.2-2.5-11-2.7-15-1.5c-0.6,0.2-1.3-0.2-1.5-0.8c-0.2-0.6,0.2-1.3,0.8-1.5
					c4.6-1.4,12.1-1.1,16.9,1.7c0.6,0.3,0.8,1.1,0.4,1.7C99,263.4,98.3,263.6,97.7,263.2z"/>
			</g>
		</g>
	</g>
	<path class="st11" d="M96,270.4c-0.2,0.4-0.7,0.5-1.1,0.3c-3-1.9-6.8-2.3-11.3-1.2c-0.4,0.1-0.9-0.2-1-0.6c-0.1-0.4,0.2-0.9,0.6-1
		c4.9-1.1,9.1-0.6,12.5,1.4C96.1,269.5,96.3,270,96,270.4z"/>
	<path class="st11" d="M97.6,266.9c-0.3,0.5-0.9,0.6-1.4,0.3c-3.5-2.1-8.7-2.7-12.8-1.5c-0.5,0.2-1.1-0.1-1.3-0.7
		c-0.2-0.5,0.1-1.1,0.7-1.3c4.7-1.4,10.5-0.7,14.5,1.7C97.7,265.8,97.9,266.4,97.6,266.9z"/>
	<path class="st11" d="M97.7,263.2c-4.2-2.5-11-2.7-15-1.5c-0.6,0.2-1.3-0.2-1.5-0.8c-0.2-0.6,0.2-1.3,0.8-1.5
		c4.6-1.4,12.1-1.1,16.9,1.7c0.6,0.3,0.8,1.1,0.4,1.7C99,263.4,98.3,263.6,97.7,263.2z"/>
</g>
<g>
	<g>
		<circle class="st1" cx="190.1" cy="22.7" r="12.3"/>
		<path class="st2" d="M198.3,22.7c0-1-0.8-1.8-1.8-1.8c-0.5,0-0.9,0.2-1.2,0.5c-1.2-0.9-2.9-1.5-4.8-1.5l0.8-3.8l2.7,0.6
			c0,0.7,0.6,1.2,1.3,1.2c0.7,0,1.3-0.6,1.3-1.3c0-0.7-0.6-1.3-1.3-1.3c-0.5,0-0.9,0.3-1.1,0.7l-3-0.6c-0.1,0-0.2,0-0.2,0
			c-0.1,0-0.1,0.1-0.1,0.2l-0.9,4.3c-1.9,0.1-3.6,0.6-4.9,1.5c-0.3-0.3-0.8-0.5-1.2-0.5c-1,0-1.8,0.8-1.8,1.8c0,0.7,0.4,1.4,1.1,1.6
			c0,0.2,0,0.4,0,0.5c0,2.8,3.2,5,7.2,5c4,0,7.2-2.2,7.2-5c0-0.2,0-0.4,0-0.5C197.9,24.1,198.3,23.4,198.3,22.7z M186,24
			c0-0.7,0.6-1.3,1.3-1.3c0.7,0,1.3,0.6,1.3,1.3c0,0.7-0.6,1.3-1.3,1.3C186.6,25.3,186,24.7,186,24z M193.2,27.4
			c-0.9,0.9-2.6,0.9-3,0.9c-0.5,0-2.2-0.1-3-0.9c-0.1-0.1-0.1-0.3,0-0.5c0.1-0.1,0.3-0.1,0.5,0c0.6,0.6,1.7,0.7,2.6,0.7
			s2-0.2,2.6-0.7c0.1-0.1,0.3-0.1,0.5,0C193.3,27,193.3,27.2,193.2,27.4z M192.9,25.3c-0.7,0-1.3-0.6-1.3-1.3c0-0.7,0.6-1.3,1.3-1.3
			c0.7,0,1.3,0.6,1.3,1.3C194.2,24.7,193.6,25.3,192.9,25.3z"/>
	</g>
</g>
</svg>
